<?xml version="1.0" standalone="no"?>
<!DOCTYPE svg PUBLIC "-//W3C//DTD SVG 20010904//EN"
 "http://www.w3.org/TR/2001/REC-SVG-20010904/DTD/svg10.dtd">
<svg version="1.0" xmlns="http://www.w3.org/2000/svg"
 width="2048.000000pt" height="2048.000000pt" viewBox="0 0 2048.000000 2048.000000"
 preserveAspectRatio="xMidYMid meet">

<g transform="translate(0.000000,2048.000000) scale(0.100000,-0.100000)"
fill="#000000" stroke="none">
<path d="M15355 14031 c-55 -24 -90 -69 -105 -131 -11 -44 -10 -57 4 -95 18
-47 51 -80 214 -213 393 -324 724 -848 857 -1356 69 -264 96 -477 97 -770 1
-490 -99 -920 -311 -1346 -182 -365 -414 -659 -721 -916 -103 -86 -115 -99
-135 -147 -28 -67 -12 -142 43 -200 57 -60 142 -77 213 -44 82 40 292 226 442
392 235 261 406 518 541 813 139 301 218 562 277 912 112 657 -8 1442 -308
2010 -101 193 -177 314 -282 455 -174 232 -532 575 -666 636 -51 24 -109 24
-160 0z"/>
<path d="M13092 13484 c-95 -47 -166 -150 -216 -316 -31 -100 -123 -500 -191
-828 -69 -332 -202 -931 -231 -1040 -55 -205 -139 -380 -183 -380 -41 0 -84
164 -96 370 -3 58 -10 232 -15 386 -11 332 -28 442 -89 569 -49 102 -103 163
-183 205 -53 28 -76 35 -144 38 -104 6 -168 -13 -265 -76 -247 -161 -443 -563
-466 -953 -7 -121 3 -162 50 -216 50 -57 126 -78 191 -53 39 15 104 78 115
113 6 18 15 88 21 156 14 175 41 276 109 417 58 119 138 225 181 239 42 13 79
-30 100 -116 6 -24 17 -217 25 -429 14 -393 26 -516 66 -660 49 -176 126 -283
246 -342 55 -27 76 -32 141 -32 99 0 169 30 253 111 99 94 165 213 244 435
l43 122 6 -59 c3 -33 13 -148 21 -255 32 -402 81 -844 110 -995 39 -201 152
-325 294 -325 161 1 286 149 376 445 65 214 119 452 249 1090 135 658 167 794
215 900 30 65 82 125 109 125 75 0 178 -174 233 -393 30 -118 37 -352 15 -472
-30 -163 -60 -238 -199 -499 -24 -45 -25 -111 -3 -154 30 -58 105 -102 174
-102 152 0 353 377 403 755 18 141 6 405 -24 536 -66 280 -211 529 -367 629
-64 41 -157 70 -223 70 -145 0 -269 -72 -363 -210 l-48 -71 -27 138 c-57 287
-163 698 -222 854 -56 149 -121 235 -210 278 -64 31 -157 29 -225 -5z m203
-690 c64 -259 101 -423 195 -866 27 -130 59 -265 70 -301 20 -65 20 -65 0
-153 -10 -49 -45 -219 -76 -379 -97 -500 -204 -975 -220 -978 -11 -2 -71 554
-109 1023 -3 36 -10 112 -15 170 -6 58 -21 238 -35 400 -14 162 -32 358 -41
435 l-17 140 52 270 c51 269 99 492 108 508 12 21 27 -25 88 -269z"/>
<path d="M7300 13446 c-106 -31 -174 -86 -221 -181 -36 -75 -35 -189 4 -267
74 -151 260 -222 419 -159 176 69 263 273 185 433 -32 66 -100 132 -165 160
-57 26 -161 32 -222 14z"/>
<path d="M5275 13401 c-594 -6 -600 -6 -641 -28 -67 -36 -101 -70 -131 -131
-23 -47 -28 -69 -27 -132 0 -93 27 -153 92 -210 74 -66 102 -70 459 -70 l312
0 3 -1027 3 -1028 28 -57 c32 -64 94 -125 165 -159 67 -33 206 -34 274 -2 69
32 141 108 167 176 21 58 21 60 21 1077 l0 1019 328 3 c319 3 328 4 374 26
105 52 165 164 156 287 -9 105 -67 186 -168 234 l-55 26 -380 1 c-209 0 -650
-2 -980 -5z"/>
<path d="M14815 13212 c-48 -23 -69 -45 -90 -95 -21 -52 -19 -115 6 -157 12
-19 83 -96 158 -170 109 -107 154 -161 220 -260 222 -335 321 -661 321 -1057
0 -237 -49 -516 -125 -713 -105 -274 -301 -566 -506 -753 -97 -88 -123 -136
-117 -212 7 -89 74 -157 167 -171 67 -10 114 20 270 171 445 432 691 1019 691
1646 0 243 -20 393 -85 644 -41 159 -70 235 -145 390 -105 215 -257 424 -425
583 -171 162 -249 197 -340 154z"/>
<path d="M9225 12654 c-199 -29 -362 -105 -488 -228 l-47 -45 -6 27 c-20 80
-87 157 -169 192 -41 18 -64 21 -130 18 -126 -7 -212 -63 -267 -176 l-33 -67
0 -1180 0 -1180 23 -42 c33 -63 74 -106 134 -139 47 -26 63 -29 138 -29 71 0
94 4 140 26 66 31 112 76 148 144 l27 50 3 363 c2 199 5 362 7 362 2 0 39 -25
82 -56 166 -120 318 -168 538 -168 116 0 154 4 225 23 169 47 298 121 431 248
134 128 219 274 286 489 26 86 27 96 27 309 0 205 -2 227 -26 316 -78 286
-292 546 -547 661 -100 46 -237 77 -359 82 -59 2 -120 2 -137 0z m80 -559
c223 -58 375 -257 375 -489 0 -305 -217 -546 -493 -546 -136 0 -259 53 -357
156 -267 277 -135 780 231 878 71 19 171 20 244 1z"/>
<path d="M7285 12606 c-132 -41 -210 -141 -223 -284 -4 -42 -7 -410 -7 -817
l0 -740 28 -57 c52 -107 146 -169 267 -176 60 -3 86 0 132 18 73 27 141 92
176 168 l27 57 3 772 c4 840 3 844 -52 931 -71 113 -223 168 -351 128z"/>
<path d="M8903 9702 c-80 -28 -157 -93 -193 -162 -65 -126 -36 -278 71 -374
68 -62 120 -81 224 -81 82 0 96 3 150 32 213 112 256 359 89 513 -63 58 -123
83 -214 87 -55 3 -89 -1 -127 -15z"/>
<path d="M3925 9680 c-152 -21 -270 -152 -269 -300 0 -67 32 -151 407 -1070
93 -229 320 -793 423 -1048 105 -263 115 -281 183 -345 142 -132 362 -155 534
-53 61 35 132 117 171 196 41 80 214 490 688 1620 50 118 119 283 155 365 104
240 126 310 120 371 -11 104 -70 190 -164 235 -70 34 -198 39 -274 10 -67 -25
-139 -86 -173 -144 -14 -23 -54 -116 -89 -207 -35 -91 -146 -367 -245 -615
-99 -247 -203 -511 -231 -585 -84 -219 -174 -440 -180 -445 -4 -2 -40 92 -80
208 -72 208 -149 416 -410 1110 -161 429 -194 509 -231 563 -69 99 -201 152
-335 134z"/>
<path d="M7175 8943 c-177 -23 -290 -56 -427 -123 -120 -60 -191 -112 -289
-211 -184 -185 -294 -432 -306 -684 -9 -191 17 -339 86 -497 136 -309 413
-532 761 -614 91 -21 274 -32 391 -23 496 38 900 394 995 874 23 118 23 333 1
431 -75 331 -271 584 -569 735 -175 88 -453 137 -643 112z m266 -563 c118 -37
234 -142 295 -265 60 -123 67 -287 19 -430 -42 -126 -102 -205 -211 -275 -204
-134 -470 -96 -636 89 -252 281 -138 754 211 877 88 31 230 33 322 4z"/>
<path d="M10555 8935 c-166 -31 -357 -105 -475 -185 -220 -150 -386 -400 -441
-665 -35 -168 -21 -410 32 -574 105 -326 397 -595 742 -685 407 -106 839 -6
1100 254 147 147 158 303 31 420 -65 60 -135 90 -212 90 -86 0 -118 -16 -216
-109 -182 -171 -373 -204 -582 -101 -138 68 -234 189 -274 346 -89 347 152
684 490 684 145 0 237 -39 369 -156 92 -81 104 -88 176 -88 178 1 357 199 316
351 -44 164 -295 338 -582 404 -123 28 -359 35 -474 14z"/>
<path d="M12760 8945 c-8 -2 -49 -9 -90 -15 -140 -23 -326 -100 -445 -185 -83
-60 -203 -185 -263 -277 -145 -223 -202 -516 -153 -793 25 -147 46 -208 111
-333 197 -376 627 -591 1102 -551 234 20 413 86 589 216 102 76 159 166 159
252 0 50 -40 130 -84 169 -65 57 -113 76 -191 77 -76 0 -82 -3 -185 -81 -118
-89 -222 -124 -365 -124 -162 0 -279 41 -381 134 -67 61 -115 136 -138 214 -8
28 -14 52 -13 52 1 0 290 1 642 3 492 2 647 5 669 15 55 24 105 73 133 130 27
54 28 64 27 187 -1 110 -5 144 -28 220 -55 182 -113 283 -230 403 -151 154
-346 249 -580 281 -69 10 -247 13 -286 6z m264 -504 c142 -50 246 -175 269
-323 l6 -38 -440 0 -439 0 6 28 c3 15 21 60 40 100 53 115 149 200 269 238 64
20 226 17 289 -5z"/>
<path d="M8925 8881 c-79 -21 -162 -87 -198 -158 -36 -70 -38 -121 -35 -913
l3 -775 28 -57 c31 -63 76 -106 147 -140 34 -17 64 -22 125 -22 103 -1 164 25
234 99 93 98 86 22 86 935 0 766 -1 807 -19 854 -42 110 -141 177 -266 182
-41 2 -88 0 -105 -5z"/>
</g>
</svg>
